<?xml version="1.0" encoding="UTF-8" standalone="no"?>
<!DOCTYPE svg PUBLIC "-//W3C//DTD SVG 1.1//EN" "http://www.w3.org/Graphics/SVG/1.1/DTD/svg11.dtd">
<svg xmlns="http://www.w3.org/2000/svg" version="1.1" viewBox="0.00 0.00 1024.00 1024.00">
<g stroke-width="2.00" fill="none" stroke-linecap="butt">
<path stroke="#9978a3" vector-effect="non-scaling-stroke" d="
  M 166.90 503.21
  L 166.69 500.89
  A 0.04 0.04 0.0 0 0 166.65 500.86
  L 166.39 500.87
  A 0.24 0.23 -89.9 0 0 166.17 501.10
  Q 165.20 532.31 167.32 561.00
  Q 168.76 580.53 172.54 602.48
  Q 173.63 608.78 176.21 618.53
  Q 184.40 649.40 196.01 676.93
  C 199.32 684.78 202.25 690.12 206.86 699.80
  Q 209.23 704.80 214.57 714.09
  Q 218.65 721.19 222.44 728.38"
/>
<path stroke="#dabdcf" vector-effect="non-scaling-stroke" d="
  M 222.44 728.38
  Q 221.19 730.94 219.94 732.94
  Q 214.93 740.95 209.88 748.12
  Q 200.34 761.64 191.15 775.38
  Q 183.23 787.21 181.31 797.56
  Q 179.26 808.64 183.29 820.41"
/>
<path stroke="#9978a3" vector-effect="non-scaling-stroke" d="
  M 183.29 820.41
  Q 180.24 829.56 180.90 838.75
  C 181.40 845.64 184.22 851.06 187.87 857.38
  C 192.46 865.31 204.95 871.95 212.97 874.31
  Q 223.00 877.28 227.35 877.64
  Q 234.04 878.19 244.75 876.74
  Q 262.69 874.31 280.27 870.01
  Q 284.12 869.07 301.39 864.68
  C 309.73 862.56 317.91 860.10 323.45 857.69
  Q 339.50 850.73 353.65 844.68
  A 1.11 1.11 0.0 0 1 354.51 844.68
  Q 363.78 848.74 378.18 855.60
  Q 399.77 865.90 421.93 871.34
  Q 444.12 876.77 449.49 877.77
  Q 464.85 880.62 490.53 882.94
  Q 497.98 883.61 512.53 883.29
  C 534.74 882.80 557.99 880.41 579.62 875.09
  C 600.94 869.85 622.83 864.42 641.95 856.92
  C 655.91 851.44 668.64 844.00 682.34 836.30
  Q 698.81 827.05 704.78 822.27
  Q 719.39 810.54 734.53 797.77
  Q 747.45 786.87 763.05 769.31
  Q 769.16 762.43 781.88 747.38
  Q 790.27 737.47 793.31 732.81
  C 804.42 715.81 815.96 696.38 825.74 675.28
  C 829.75 666.62 832.74 657.62 837.34 645.33
  Q 840.17 637.79 841.58 630.49"
/>
<path stroke="#73607a" vector-effect="non-scaling-stroke" d="
  M 841.58 630.49
  C 846.06 615.70 848.07 601.37 850.60 586.67
  Q 851.88 579.19 851.82 574.46"
/>
<path stroke="#dabdcf" vector-effect="non-scaling-stroke" d="
  M 851.82 574.46
  Q 858.56 535.69 858.10 496.33
  C 857.90 479.64 856.20 464.33 854.04 447.21
  Q 850.36 418.10 840.66 389.29
  C 823.03 336.91 793.67 290.49 753.97 251.78
  Q 733.35 231.67 707.50 212.93
  Q 703.26 209.86 694.78 204.49
  Q 684.64 198.06 681.74 196.38
  Q 635.69 169.70 580.96 159.73
  C 574.33 158.52 568.03 158.15 562.07 157.15
  Q 556.04 156.14 547.88 155.63
  Q 520.87 153.94 506.26 154.28
  Q 477.76 154.95 446.32 159.85
  Q 436.27 161.42 427.31 163.83
  C 395.29 172.41 364.87 184.65 336.49 201.41
  C 281.17 234.07 236.61 280.96 206.48 338.47
  C 179.84 389.31 167.45 445.34 166.90 503.21"
/>
<path stroke="#8e8982" vector-effect="non-scaling-stroke" d="
  M 851.82 574.46
  Q 847.31 596.90 841.35 615.65
  Q 834.89 635.98 823.99 657.26
  Q 812.83 679.06 799.05 699.19
  C 780.75 725.94 758.07 750.18 733.32 771.61"
/>
<path stroke="#b4a1ab" vector-effect="non-scaling-stroke" d="
  M 733.32 771.61
  C 715.74 786.81 700.03 799.33 680.43 809.91
  Q 670.50 815.27 660.49 820.50
  Q 653.94 823.92 640.25 829.18
  Q 595.72 846.31 550.30 851.67"
/>
<path stroke="#8e8982" vector-effect="non-scaling-stroke" d="
  M 550.30 851.67
  L 525.70 853.85"
/>
<path stroke="#b4a1ab" vector-effect="non-scaling-stroke" d="
  M 525.70 853.85
  L 503.63 853.81"
/>
<path stroke="#8e8982" vector-effect="non-scaling-stroke" d="
  M 503.63 853.81
  Q 475.74 852.67 456.25 849.93
  Q 438.77 847.46 417.23 841.37
  Q 403.86 837.59 386.84 830.52
  Q 373.72 825.07 354.82 817.42
  Q 351.97 816.27 350.44 816.97
  Q 317.99 831.83 282.80 840.84
  Q 270.55 843.98 251.92 846.90
  Q 231.10 850.16 211.64 845.11
  Q 195.13 840.83 185.41 825.29"
/>
<path stroke="#b4a1ab" vector-effect="non-scaling-stroke" d="
  M 185.41 825.29
  L 183.29 820.41"
/>
<path stroke="#b4a1ab" vector-effect="non-scaling-stroke" d="
  M 222.44 728.38
  Q 227.44 718.37 230.15 707.40
  A 1.88 1.86 35.8 0 0 229.90 705.92
  Q 219.27 689.81 216.29 685.23
  Q 202.93 664.66 193.94 642.34
  C 182.78 614.65 174.49 586.32 170.58 556.69
  Q 166.68 527.13 166.90 503.21"
/>
<path stroke="#4d4455" vector-effect="non-scaling-stroke" d="
  M 841.58 630.49
  Q 841.59 626.32 843.13 622.49
  A 7.32 7.32 0.0 0 0 843.53 621.09
  Q 844.38 616.04 845.63 610.22
  Q 845.77 609.59 845.34 608.65
  A 0.27 0.27 0.0 0 0 844.86 608.64
  Q 844.61 609.14 843.84 612.29
  Q 843.55 613.50 842.64 615.79
  Q 838.80 625.50 836.46 632.07
  C 834.97 636.24 833.41 639.01 832.09 642.69
  Q 831.41 644.59 828.42 650.49
  C 821.66 663.83 816.67 674.17 809.65 684.91
  Q 798.76 701.54 787.46 716.94
  Q 783.99 721.67 778.99 727.06
  Q 775.46 730.86 770.26 737.01
  Q 768.74 738.81 755.88 752.15
  A 1.22 0.03 -52.7 0 0 755.25 752.94
  Q 754.88 753.43 753.52 754.52
  Q 749.01 758.14 741.16 765.91
  Q 738.03 769.01 733.32 771.61"
/>
<path stroke="#4d4455" vector-effect="non-scaling-stroke" d="
  M 185.41 825.29
  Q 187.31 831.30 191.75 835.00
  Q 195.29 837.95 195.55 838.20
  C 202.72 845.26 214.11 846.82 223.47 848.55
  Q 227.39 849.27 231.57 849.15
  Q 245.20 848.74 246.74 848.57
  Q 265.20 846.50 287.48 840.63
  Q 295.70 838.46 306.22 835.33
  Q 316.32 832.33 331.18 826.04
  Q 332.26 825.58 340.65 822.32
  Q 345.58 820.40 350.32 817.83
  A 1.80 1.75 -57.2 0 1 351.23 817.62
  Q 353.15 817.68 355.43 818.59
  Q 378.86 828.00 398.52 835.99
  Q 407.91 839.81 422.11 843.46
  Q 443.72 849.01 459.41 851.02
  Q 462.41 851.40 463.14 851.41
  C 466.37 851.45 469.48 852.11 472.50 852.39
  Q 485.55 853.61 496.87 854.46
  Q 500.57 854.74 503.63 853.81"
/>
<path stroke="#4d4455" vector-effect="non-scaling-stroke" d="
  M 525.70 853.85
  Q 538.16 854.06 550.75 852.48
  A 0.46 0.46 0.0 0 0 550.92 851.62
  Q 550.71 851.50 550.30 851.67"
/>
<path stroke="#f3c17d" vector-effect="non-scaling-stroke" d="
  M 230.73 744.59
  Q 228.79 745.40 226.89 748.11
  Q 218.09 760.66 212.27 771.31"
/>
<path stroke="#8e8982" vector-effect="non-scaling-stroke" d="
  M 212.27 771.31
  Q 199.88 788.23 197.47 793.20
  Q 191.74 805.06 196.69 815.99
  C 201.74 827.16 214.53 832.53 225.83 833.20
  C 245.34 834.37 265.09 830.61 284.27 825.52
  Q 318.22 816.52 350.04 801.01
  Q 352.20 799.96 354.15 800.81
  C 386.24 814.78 418.44 827.90 450.27 833.71
  C 475.93 838.40 504.05 839.91 530.01 838.69
  C 595.75 835.59 659.98 812.20 711.19 771.17
  C 742.62 745.99 770.66 716.66 792.24 683.49
  Q 816.91 645.57 829.67 601.44
  C 846.94 541.71 848.81 477.70 833.90 417.30
  C 813.53 334.76 760.54 263.95 689.36 218.01
  Q 636.80 184.09 572.69 172.98
  Q 543.87 167.99 509.75 168.32
  Q 475.49 168.64 445.96 175.06
  C 421.82 180.30 397.04 187.78 373.81 198.30
  Q 296.81 233.15 246.98 300.96
  C 223.88 332.40 205.96 366.94 195.06 404.23
  Q 173.25 478.79 185.00 556.23
  Q 197.22 636.76 246.17 703.36
  A 1.93 1.89 34.9 0 1 246.48 704.99
  Q 240.89 725.70 230.73 744.59"
/>
<path stroke="#8c6427" vector-effect="non-scaling-stroke" d="
  M 212.27 771.31
  Q 221.16 760.31 228.64 748.81
  Q 229.40 747.64 230.73 744.59"
/>
<path stroke="#8c6427" vector-effect="non-scaling-stroke" d="
  M 232.70 800.77
  Q 233.34 800.97 234.28 800.86
  Q 248.23 799.20 261.88 796.64
  C 281.28 792.99 297.56 787.39 316.11 780.26
  C 323.15 777.56 330.06 773.74 335.25 771.02
  C 345.86 765.47 352.28 762.50 362.59 766.90
  C 375.80 772.54 388.73 778.91 401.45 784.05
  C 415.83 789.87 434.02 795.16 447.39 798.35
  Q 479.75 806.09 516.50 805.46
  C 529.87 805.22 543.67 803.71 555.52 802.12
  Q 568.09 800.44 577.86 798.33
  Q 614.42 790.44 647.07 772.29
  Q 665.96 761.79 676.37 754.62
  Q 690.00 745.23 712.37 726.36
  Q 720.20 719.75 730.23 708.74
  Q 741.27 696.62 751.74 683.01
  Q 770.73 658.32 784.35 628.86
  Q 791.27 613.88 795.12 601.88
  Q 801.85 580.90 805.72 558.75
  Q 807.88 546.38 809.42 527.81
  Q 810.79 511.33 810.51 496.66
  Q 809.78 457.03 799.83 418.70
  Q 790.61 383.16 770.90 350.35
  C 762.38 336.17 756.14 325.81 747.86 315.62
  Q 727.63 290.73 702.19 269.12
  Q 693.77 261.96 683.35 255.01
  Q 666.71 243.92 663.63 242.12
  Q 641.82 229.37 624.14 222.12
  C 605.44 214.45 585.14 210.03 565.24 205.90
  C 547.05 202.12 527.86 201.57 512.25 201.53
  Q 480.85 201.46 447.87 207.63
  Q 428.11 211.33 410.69 218.23
  Q 387.48 227.42 379.06 232.08
  Q 361.74 241.65 350.17 248.94
  C 331.92 260.44 313.91 274.62 298.60 290.58
  Q 278.73 311.29 263.76 334.50
  C 253.09 351.05 242.45 370.73 235.43 389.14
  C 229.02 405.94 223.71 423.26 220.25 442.23
  Q 216.88 460.73 216.17 466.48
  C 211.83 501.45 214.10 538.05 221.85 572.74
  Q 227.78 599.31 236.66 620.15
  C 243.87 637.05 252.77 653.88 263.86 669.54
  Q 266.01 672.57 276.27 687.52
  Q 280.71 693.99 279.84 701.75
  Q 278.10 717.31 273.73 728.00
  C 268.49 740.81 262.54 755.39 254.97 767.46
  Q 244.74 783.78 232.33 799.60
  A 0.75 0.75 0.0 0 0 232.70 800.77"
/>
<path stroke="#8c6427" vector-effect="non-scaling-stroke" d="
  M 414.55 391.72
  Q 408.70 387.03 403.90 385.33
  C 382.19 377.66 363.48 389.27 353.87 408.40
  Q 343.09 429.85 343.55 456.01
  C 343.90 476.48 352.02 498.65 370.17 509.58
  C 382.44 516.97 395.64 516.76 408.17 510.28
  C 418.68 504.85 427.26 491.57 431.28 480.80
  Q 440.54 456.05 435.17 430.08
  C 432.20 415.71 425.70 400.67 414.55 391.72"
/>
<path stroke="#8c6427" vector-effect="non-scaling-stroke" d="
  M 672.81 413.46
  C 668.91 404.50 663.16 396.07 655.41 390.43
  C 642.19 380.80 625.03 380.68 611.77 390.21
  C 594.82 402.40 587.17 426.55 586.70 446.42
  C 586.24 466.09 589.61 487.15 603.94 501.87
  C 617.95 516.28 636.83 519.99 654.06 507.98
  C 667.73 498.44 675.47 482.16 678.44 466.02
  Q 683.58 438.19 672.81 413.46"
/>
<path stroke="#8c6427" vector-effect="non-scaling-stroke" d="
  M 474.08 661.21
  C 503.76 665.84 535.88 664.28 565.93 655.91
  Q 607.85 644.24 640.67 617.18
  Q 652.85 607.15 661.64 594.20
  Q 670.93 580.53 660.46 568.92
  Q 655.06 562.93 649.12 561.96
  Q 637.59 560.08 629.46 568.50
  Q 629.18 568.79 620.81 578.32
  Q 603.84 597.64 578.96 608.21
  Q 555.55 618.16 530.85 620.55
  Q 517.35 621.86 500.94 621.38
  Q 489.75 621.05 482.10 619.60
  Q 449.08 613.35 420.49 592.72
  Q 407.40 583.27 392.76 568.26
  C 385.56 560.87 376.57 559.52 368.32 566.31
  C 362.22 571.33 360.24 580.85 361.92 588.34
  C 363.03 593.26 367.19 598.55 370.39 602.38
  C 396.40 633.49 433.80 654.93 474.08 661.21"
/>
</g>
<path fill="#bf94c7" d="
  M 1024.00 0.00
  L 1024.00 1024.00
  L 0.00 1024.00
  L 0.00 0.00
  L 1024.00 0.00
  Z
  M 166.90 503.21
  L 166.69 500.89
  A 0.04 0.04 0.0 0 0 166.65 500.86
  L 166.39 500.87
  A 0.24 0.23 -89.9 0 0 166.17 501.10
  Q 165.20 532.31 167.32 561.00
  Q 168.76 580.53 172.54 602.48
  Q 173.63 608.78 176.21 618.53
  Q 184.40 649.40 196.01 676.93
  C 199.32 684.78 202.25 690.12 206.86 699.80
  Q 209.23 704.80 214.57 714.09
  Q 218.65 721.19 222.44 728.38
  Q 221.19 730.94 219.94 732.94
  Q 214.93 740.95 209.88 748.12
  Q 200.34 761.64 191.15 775.38
  Q 183.23 787.21 181.31 797.56
  Q 179.26 808.64 183.29 820.41
  Q 180.24 829.56 180.90 838.75
  C 181.40 845.64 184.22 851.06 187.87 857.38
  C 192.46 865.31 204.95 871.95 212.97 874.31
  Q 223.00 877.28 227.35 877.64
  Q 234.04 878.19 244.75 876.74
  Q 262.69 874.31 280.27 870.01
  Q 284.12 869.07 301.39 864.68
  C 309.73 862.56 317.91 860.10 323.45 857.69
  Q 339.50 850.73 353.65 844.68
  A 1.11 1.11 0.0 0 1 354.51 844.68
  Q 363.78 848.74 378.18 855.60
  Q 399.77 865.90 421.93 871.34
  Q 444.12 876.77 449.49 877.77
  Q 464.85 880.62 490.53 882.94
  Q 497.98 883.61 512.53 883.29
  C 534.74 882.80 557.99 880.41 579.62 875.09
  C 600.94 869.85 622.83 864.42 641.95 856.92
  C 655.91 851.44 668.64 844.00 682.34 836.30
  Q 698.81 827.05 704.78 822.27
  Q 719.39 810.54 734.53 797.77
  Q 747.45 786.87 763.05 769.31
  Q 769.16 762.43 781.88 747.38
  Q 790.27 737.47 793.31 732.81
  C 804.42 715.81 815.96 696.38 825.74 675.28
  C 829.75 666.62 832.74 657.62 837.34 645.33
  Q 840.17 637.79 841.58 630.49
  C 846.06 615.70 848.07 601.37 850.60 586.67
  Q 851.88 579.19 851.82 574.46
  Q 858.56 535.69 858.10 496.33
  C 857.90 479.64 856.20 464.33 854.04 447.21
  Q 850.36 418.10 840.66 389.29
  C 823.03 336.91 793.67 290.49 753.97 251.78
  Q 733.35 231.67 707.50 212.93
  Q 703.26 209.86 694.78 204.49
  Q 684.64 198.06 681.74 196.38
  Q 635.69 169.70 580.96 159.73
  C 574.33 158.52 568.03 158.15 562.07 157.15
  Q 556.04 156.14 547.88 155.63
  Q 520.87 153.94 506.26 154.28
  Q 477.76 154.95 446.32 159.85
  Q 436.27 161.42 427.31 163.83
  C 395.29 172.41 364.87 184.65 336.49 201.41
  C 281.17 234.07 236.61 280.96 206.48 338.47
  C 179.84 389.31 167.45 445.34 166.90 503.21
  Z"
/>
<path fill="#f5e6d7" d="
  M 851.82 574.46
  Q 847.31 596.90 841.35 615.65
  Q 834.89 635.98 823.99 657.26
  Q 812.83 679.06 799.05 699.19
  C 780.75 725.94 758.07 750.18 733.32 771.61
  C 715.74 786.81 700.03 799.33 680.43 809.91
  Q 670.50 815.27 660.49 820.50
  Q 653.94 823.92 640.25 829.18
  Q 595.72 846.31 550.30 851.67
  L 525.70 853.85
  L 503.63 853.81
  Q 475.74 852.67 456.25 849.93
  Q 438.77 847.46 417.23 841.37
  Q 403.86 837.59 386.84 830.52
  Q 373.72 825.07 354.82 817.42
  Q 351.97 816.27 350.44 816.97
  Q 317.99 831.83 282.80 840.84
  Q 270.55 843.98 251.92 846.90
  Q 231.10 850.16 211.64 845.11
  Q 195.13 840.83 185.41 825.29
  L 183.29 820.41
  Q 179.26 808.64 181.31 797.56
  Q 183.23 787.21 191.15 775.38
  Q 200.34 761.64 209.88 748.12
  Q 214.93 740.95 219.94 732.94
  Q 221.19 730.94 222.44 728.38
  Q 227.44 718.37 230.15 707.40
  A 1.88 1.86 35.8 0 0 229.90 705.92
  Q 219.27 689.81 216.29 685.23
  Q 202.93 664.66 193.94 642.34
  C 182.78 614.65 174.49 586.32 170.58 556.69
  Q 166.68 527.13 166.90 503.21
  C 167.45 445.34 179.84 389.31 206.48 338.47
  C 236.61 280.96 281.17 234.07 336.49 201.41
  C 364.87 184.65 395.29 172.41 427.31 163.83
  Q 436.27 161.42 446.32 159.85
  Q 477.76 154.95 506.26 154.28
  Q 520.87 153.94 547.88 155.63
  Q 556.04 156.14 562.07 157.15
  C 568.03 158.15 574.33 158.52 580.96 159.73
  Q 635.69 169.70 681.74 196.38
  Q 684.64 198.06 694.78 204.49
  Q 703.26 209.86 707.50 212.93
  Q 733.35 231.67 753.97 251.78
  C 793.67 290.49 823.03 336.91 840.66 389.29
  Q 850.36 418.10 854.04 447.21
  C 856.20 464.33 857.90 479.64 858.10 496.33
  Q 858.56 535.69 851.82 574.46
  Z
  M 230.73 744.59
  Q 228.79 745.40 226.89 748.11
  Q 218.09 760.66 212.27 771.31
  Q 199.88 788.23 197.47 793.20
  Q 191.74 805.06 196.69 815.99
  C 201.74 827.16 214.53 832.53 225.83 833.20
  C 245.34 834.37 265.09 830.61 284.27 825.52
  Q 318.22 816.52 350.04 801.01
  Q 352.20 799.96 354.15 800.81
  C 386.24 814.78 418.44 827.90 450.27 833.71
  C 475.93 838.40 504.05 839.91 530.01 838.69
  C 595.75 835.59 659.98 812.20 711.19 771.17
  C 742.62 745.99 770.66 716.66 792.24 683.49
  Q 816.91 645.57 829.67 601.44
  C 846.94 541.71 848.81 477.70 833.90 417.30
  C 813.53 334.76 760.54 263.95 689.36 218.01
  Q 636.80 184.09 572.69 172.98
  Q 543.87 167.99 509.75 168.32
  Q 475.49 168.64 445.96 175.06
  C 421.82 180.30 397.04 187.78 373.81 198.30
  Q 296.81 233.15 246.98 300.96
  C 223.88 332.40 205.96 366.94 195.06 404.23
  Q 173.25 478.79 185.00 556.23
  Q 197.22 636.76 246.17 703.36
  A 1.93 1.89 34.9 0 1 246.48 704.99
  Q 240.89 725.70 230.73 744.59
  Z"
/>
<path fill="#262c2c" d="
  M 212.27 771.31
  Q 221.16 760.31 228.64 748.81
  Q 229.40 747.64 230.73 744.59
  Q 240.89 725.70 246.48 704.99
  A 1.93 1.89 34.9 0 0 246.17 703.36
  Q 197.22 636.76 185.00 556.23
  Q 173.25 478.79 195.06 404.23
  C 205.96 366.94 223.88 332.40 246.98 300.96
  Q 296.81 233.15 373.81 198.30
  C 397.04 187.78 421.82 180.30 445.96 175.06
  Q 475.49 168.64 509.75 168.32
  Q 543.87 167.99 572.69 172.98
  Q 636.80 184.09 689.36 218.01
  C 760.54 263.95 813.53 334.76 833.90 417.30
  C 848.81 477.70 846.94 541.71 829.67 601.44
  Q 816.91 645.57 792.24 683.49
  C 770.66 716.66 742.62 745.99 711.19 771.17
  C 659.98 812.20 595.75 835.59 530.01 838.69
  C 504.05 839.91 475.93 838.40 450.27 833.71
  C 418.44 827.90 386.24 814.78 354.15 800.81
  Q 352.20 799.96 350.04 801.01
  Q 318.22 816.52 284.27 825.52
  C 265.09 830.61 245.34 834.37 225.83 833.20
  C 214.53 832.53 201.74 827.16 196.69 815.99
  Q 191.74 805.06 197.47 793.20
  Q 199.88 788.23 212.27 771.31
  Z
  M 232.70 800.77
  Q 233.34 800.97 234.28 800.86
  Q 248.23 799.20 261.88 796.64
  C 281.28 792.99 297.56 787.39 316.11 780.26
  C 323.15 777.56 330.06 773.74 335.25 771.02
  C 345.86 765.47 352.28 762.50 362.59 766.90
  C 375.80 772.54 388.73 778.91 401.45 784.05
  C 415.83 789.87 434.02 795.16 447.39 798.35
  Q 479.75 806.09 516.50 805.46
  C 529.87 805.22 543.67 803.71 555.52 802.12
  Q 568.09 800.44 577.86 798.33
  Q 614.42 790.44 647.07 772.29
  Q 665.96 761.79 676.37 754.62
  Q 690.00 745.23 712.37 726.36
  Q 720.20 719.75 730.23 708.74
  Q 741.27 696.62 751.74 683.01
  Q 770.73 658.32 784.35 628.86
  Q 791.27 613.88 795.12 601.88
  Q 801.85 580.90 805.72 558.75
  Q 807.88 546.38 809.42 527.81
  Q 810.79 511.33 810.51 496.66
  Q 809.78 457.03 799.83 418.70
  Q 790.61 383.16 770.90 350.35
  C 762.38 336.17 756.14 325.81 747.86 315.62
  Q 727.63 290.73 702.19 269.12
  Q 693.77 261.96 683.35 255.01
  Q 666.71 243.92 663.63 242.12
  Q 641.82 229.37 624.14 222.12
  C 605.44 214.45 585.14 210.03 565.24 205.90
  C 547.05 202.12 527.86 201.57 512.25 201.53
  Q 480.85 201.46 447.87 207.63
  Q 428.11 211.33 410.69 218.23
  Q 387.48 227.42 379.06 232.08
  Q 361.74 241.65 350.17 248.94
  C 331.92 260.44 313.91 274.62 298.60 290.58
  Q 278.73 311.29 263.76 334.50
  C 253.09 351.05 242.45 370.73 235.43 389.14
  C 229.02 405.94 223.71 423.26 220.25 442.23
  Q 216.88 460.73 216.17 466.48
  C 211.83 501.45 214.10 538.05 221.85 572.74
  Q 227.78 599.31 236.66 620.15
  C 243.87 637.05 252.77 653.88 263.86 669.54
  Q 266.01 672.57 276.27 687.52
  Q 280.71 693.99 279.84 701.75
  Q 278.10 717.31 273.73 728.00
  C 268.49 740.81 262.54 755.39 254.97 767.46
  Q 244.74 783.78 232.33 799.60
  A 0.75 0.75 0.0 0 0 232.70 800.77
  Z"
/>
<path fill="#f19b22" d="
  M 232.70 800.77
  A 0.75 0.75 0.0 0 1 232.33 799.60
  Q 244.74 783.78 254.97 767.46
  C 262.54 755.39 268.49 740.81 273.73 728.00
  Q 278.10 717.31 279.84 701.75
  Q 280.71 693.99 276.27 687.52
  Q 266.01 672.57 263.86 669.54
  C 252.77 653.88 243.87 637.05 236.66 620.15
  Q 227.78 599.31 221.85 572.74
  C 214.10 538.05 211.83 501.45 216.17 466.48
  Q 216.88 460.73 220.25 442.23
  C 223.71 423.26 229.02 405.94 235.43 389.14
  C 242.45 370.73 253.09 351.05 263.76 334.50
  Q 278.73 311.29 298.60 290.58
  C 313.91 274.62 331.92 260.44 350.17 248.94
  Q 361.74 241.65 379.06 232.08
  Q 387.48 227.42 410.69 218.23
  Q 428.11 211.33 447.87 207.63
  Q 480.85 201.46 512.25 201.53
  C 527.86 201.57 547.05 202.12 565.24 205.90
  C 585.14 210.03 605.44 214.45 624.14 222.12
  Q 641.82 229.37 663.63 242.12
  Q 666.71 243.92 683.35 255.01
  Q 693.77 261.96 702.19 269.12
  Q 727.63 290.73 747.86 315.62
  C 756.14 325.81 762.38 336.17 770.90 350.35
  Q 790.61 383.16 799.83 418.70
  Q 809.78 457.03 810.51 496.66
  Q 810.79 511.33 809.42 527.81
  Q 807.88 546.38 805.72 558.75
  Q 801.85 580.90 795.12 601.88
  Q 791.27 613.88 784.35 628.86
  Q 770.73 658.32 751.74 683.01
  Q 741.27 696.62 730.23 708.74
  Q 720.20 719.75 712.37 726.36
  Q 690.00 745.23 676.37 754.62
  Q 665.96 761.79 647.07 772.29
  Q 614.42 790.44 577.86 798.33
  Q 568.09 800.44 555.52 802.12
  C 543.67 803.71 529.87 805.22 516.50 805.46
  Q 479.75 806.09 447.39 798.35
  C 434.02 795.16 415.83 789.87 401.45 784.05
  C 388.73 778.91 375.80 772.54 362.59 766.90
  C 352.28 762.50 345.86 765.47 335.25 771.02
  C 330.06 773.74 323.15 777.56 316.11 780.26
  C 297.56 787.39 281.28 792.99 261.88 796.64
  Q 248.23 799.20 234.28 800.86
  Q 233.34 800.97 232.70 800.77
  Z
  M 414.55 391.72
  Q 408.70 387.03 403.90 385.33
  C 382.19 377.66 363.48 389.27 353.87 408.40
  Q 343.09 429.85 343.55 456.01
  C 343.90 476.48 352.02 498.65 370.17 509.58
  C 382.44 516.97 395.64 516.76 408.17 510.28
  C 418.68 504.85 427.26 491.57 431.28 480.80
  Q 440.54 456.05 435.17 430.08
  C 432.20 415.71 425.70 400.67 414.55 391.72
  Z
  M 672.81 413.46
  C 668.91 404.50 663.16 396.07 655.41 390.43
  C 642.19 380.80 625.03 380.68 611.77 390.21
  C 594.82 402.40 587.17 426.55 586.70 446.42
  C 586.24 466.09 589.61 487.15 603.94 501.87
  C 617.95 516.28 636.83 519.99 654.06 507.98
  C 667.73 498.44 675.47 482.16 678.44 466.02
  Q 683.58 438.19 672.81 413.46
  Z
  M 474.08 661.21
  C 503.76 665.84 535.88 664.28 565.93 655.91
  Q 607.85 644.24 640.67 617.18
  Q 652.85 607.15 661.64 594.20
  Q 670.93 580.53 660.46 568.92
  Q 655.06 562.93 649.12 561.96
  Q 637.59 560.08 629.46 568.50
  Q 629.18 568.79 620.81 578.32
  Q 603.84 597.64 578.96 608.21
  Q 555.55 618.16 530.85 620.55
  Q 517.35 621.86 500.94 621.38
  Q 489.75 621.05 482.10 619.60
  Q 449.08 613.35 420.49 592.72
  Q 407.40 583.27 392.76 568.26
  C 385.56 560.87 376.57 559.52 368.32 566.31
  C 362.22 571.33 360.24 580.85 361.92 588.34
  C 363.03 593.26 367.19 598.55 370.39 602.38
  C 396.40 633.49 433.80 654.93 474.08 661.21
  Z"
/>
<path fill="#262c2c" d="
  M 414.55 391.72
  C 425.70 400.67 432.20 415.71 435.17 430.08
  Q 440.54 456.05 431.28 480.80
  C 427.26 491.57 418.68 504.85 408.17 510.28
  C 395.64 516.76 382.44 516.97 370.17 509.58
  C 352.02 498.65 343.90 476.48 343.55 456.01
  Q 343.09 429.85 353.87 408.40
  C 363.48 389.27 382.19 377.66 403.90 385.33
  Q 408.70 387.03 414.55 391.72
  Z"
/>
<path fill="#262c2c" d="
  M 655.41 390.43
  C 663.16 396.07 668.91 404.50 672.81 413.46
  Q 683.58 438.19 678.44 466.02
  C 675.47 482.16 667.73 498.44 654.06 507.98
  C 636.83 519.99 617.95 516.28 603.94 501.87
  C 589.61 487.15 586.24 466.09 586.70 446.42
  C 587.17 426.55 594.82 402.40 611.77 390.21
  C 625.03 380.68 642.19 380.80 655.41 390.43
  Z"
/>
<path fill="#735b7e" d="
  M 166.90 503.21
  Q 166.68 527.13 170.58 556.69
  C 174.49 586.32 182.78 614.65 193.94 642.34
  Q 202.93 664.66 216.29 685.23
  Q 219.27 689.81 229.90 705.92
  A 1.88 1.86 35.8 0 1 230.15 707.40
  Q 227.44 718.37 222.44 728.38
  Q 218.65 721.19 214.57 714.09
  Q 209.23 704.80 206.86 699.80
  C 202.25 690.12 199.32 684.78 196.01 676.93
  Q 184.40 649.40 176.21 618.53
  Q 173.63 608.78 172.54 602.48
  Q 168.76 580.53 167.32 561.00
  Q 165.20 532.31 166.17 501.10
  A 0.24 0.23 -89.9 0 1 166.39 500.87
  L 166.65 500.86
  A 0.04 0.04 0.0 0 1 166.69 500.89
  L 166.90 503.21
  Z"
/>
<path fill="#262c2c" d="
  M 474.08 661.21
  C 433.80 654.93 396.40 633.49 370.39 602.38
  C 367.19 598.55 363.03 593.26 361.92 588.34
  C 360.24 580.85 362.22 571.33 368.32 566.31
  C 376.57 559.52 385.56 560.87 392.76 568.26
  Q 407.40 583.27 420.49 592.72
  Q 449.08 613.35 482.10 619.60
  Q 489.75 621.05 500.94 621.38
  Q 517.35 621.86 530.85 620.55
  Q 555.55 618.16 578.96 608.21
  Q 603.84 597.64 620.81 578.32
  Q 629.18 568.79 629.46 568.50
  Q 637.59 560.08 649.12 561.96
  Q 655.06 562.93 660.46 568.92
  Q 670.93 580.53 661.64 594.20
  Q 652.85 607.15 640.67 617.18
  Q 607.85 644.24 565.93 655.91
  C 535.88 664.28 503.76 665.84 474.08 661.21
  Z"
/>
<path fill="#262c2c" d="
  M 841.58 630.49
  Q 841.59 626.32 843.13 622.49
  A 7.32 7.32 0.0 0 0 843.53 621.09
  Q 844.38 616.04 845.63 610.22
  Q 845.77 609.59 845.34 608.65
  A 0.27 0.27 0.0 0 0 844.86 608.64
  Q 844.61 609.14 843.84 612.29
  Q 843.55 613.50 842.64 615.79
  Q 838.80 625.50 836.46 632.07
  C 834.97 636.24 833.41 639.01 832.09 642.69
  Q 831.41 644.59 828.42 650.49
  C 821.66 663.83 816.67 674.17 809.65 684.91
  Q 798.76 701.54 787.46 716.94
  Q 783.99 721.67 778.99 727.06
  Q 775.46 730.86 770.26 737.01
  Q 768.74 738.81 755.88 752.15
  A 1.22 0.03 -52.7 0 0 755.25 752.94
  Q 754.88 753.43 753.52 754.52
  Q 749.01 758.14 741.16 765.91
  Q 738.03 769.01 733.32 771.61
  C 758.07 750.18 780.75 725.94 799.05 699.19
  Q 812.83 679.06 823.99 657.26
  Q 834.89 635.98 841.35 615.65
  Q 847.31 596.90 851.82 574.46
  Q 851.88 579.19 850.60 586.67
  C 848.07 601.37 846.06 615.70 841.58 630.49
  Z"
/>
<path fill="#735b7e" d="
  M 841.58 630.49
  Q 840.17 637.79 837.34 645.33
  C 832.74 657.62 829.75 666.62 825.74 675.28
  C 815.96 696.38 804.42 715.81 793.31 732.81
  Q 790.27 737.47 781.88 747.38
  Q 769.16 762.43 763.05 769.31
  Q 747.45 786.87 734.53 797.77
  Q 719.39 810.54 704.78 822.27
  Q 698.81 827.05 682.34 836.30
  C 668.64 844.00 655.91 851.44 641.95 856.92
  C 622.83 864.42 600.94 869.85 579.62 875.09
  C 557.99 880.41 534.74 882.80 512.53 883.29
  Q 497.98 883.61 490.53 882.94
  Q 464.85 880.62 449.49 877.77
  Q 444.12 876.77 421.93 871.34
  Q 399.77 865.90 378.18 855.60
  Q 363.78 848.74 354.51 844.68
  A 1.11 1.11 0.0 0 0 353.65 844.68
  Q 339.50 850.73 323.45 857.69
  C 317.91 860.10 309.73 862.56 301.39 864.68
  Q 284.12 869.07 280.27 870.01
  Q 262.69 874.31 244.75 876.74
  Q 234.04 878.19 227.35 877.64
  Q 223.00 877.28 212.97 874.31
  C 204.95 871.95 192.46 865.31 187.87 857.38
  C 184.22 851.06 181.40 845.64 180.90 838.75
  Q 180.24 829.56 183.29 820.41
  L 185.41 825.29
  Q 187.31 831.30 191.75 835.00
  Q 195.29 837.95 195.55 838.20
  C 202.72 845.26 214.11 846.82 223.47 848.55
  Q 227.39 849.27 231.57 849.15
  Q 245.20 848.74 246.74 848.57
  Q 265.20 846.50 287.48 840.63
  Q 295.70 838.46 306.22 835.33
  Q 316.32 832.33 331.18 826.04
  Q 332.26 825.58 340.65 822.32
  Q 345.58 820.40 350.32 817.83
  A 1.80 1.75 -57.2 0 1 351.23 817.62
  Q 353.15 817.68 355.43 818.59
  Q 378.86 828.00 398.52 835.99
  Q 407.91 839.81 422.11 843.46
  Q 443.72 849.01 459.41 851.02
  Q 462.41 851.40 463.14 851.41
  C 466.37 851.45 469.48 852.11 472.50 852.39
  Q 485.55 853.61 496.87 854.46
  Q 500.57 854.74 503.63 853.81
  L 525.70 853.85
  Q 538.16 854.06 550.75 852.48
  A 0.46 0.46 0.0 0 0 550.92 851.62
  Q 550.71 851.50 550.30 851.67
  Q 595.72 846.31 640.25 829.18
  Q 653.94 823.92 660.49 820.50
  Q 670.50 815.27 680.43 809.91
  C 700.03 799.33 715.74 786.81 733.32 771.61
  Q 738.03 769.01 741.16 765.91
  Q 749.01 758.14 753.52 754.52
  Q 754.88 753.43 755.25 752.94
  A 1.22 0.03 -52.7 0 1 755.88 752.15
  Q 768.74 738.81 770.26 737.01
  Q 775.46 730.86 778.99 727.06
  Q 783.99 721.67 787.46 716.94
  Q 798.76 701.54 809.65 684.91
  C 816.67 674.17 821.66 663.83 828.42 650.49
  Q 831.41 644.59 832.09 642.69
  C 833.41 639.01 834.97 636.24 836.46 632.07
  Q 838.80 625.50 842.64 615.79
  Q 843.55 613.50 843.84 612.29
  Q 844.61 609.14 844.86 608.64
  A 0.27 0.27 0.0 0 1 845.34 608.65
  Q 845.77 609.59 845.63 610.22
  Q 844.38 616.04 843.53 621.09
  A 7.32 7.32 0.0 0 1 843.13 622.49
  Q 841.59 626.32 841.58 630.49
  Z"
/>
<path fill="#f19b22" d="
  M 230.73 744.59
  Q 229.40 747.64 228.64 748.81
  Q 221.16 760.31 212.27 771.31
  Q 218.09 760.66 226.89 748.11
  Q 228.79 745.40 230.73 744.59
  Z"
/>
<path fill="#262c2c" d="
  M 503.63 853.81
  Q 500.57 854.74 496.87 854.46
  Q 485.55 853.61 472.50 852.39
  C 469.48 852.11 466.37 851.45 463.14 851.41
  Q 462.41 851.40 459.41 851.02
  Q 443.72 849.01 422.11 843.46
  Q 407.91 839.81 398.52 835.99
  Q 378.86 828.00 355.43 818.59
  Q 353.15 817.68 351.23 817.62
  A 1.80 1.75 -57.2 0 0 350.32 817.83
  Q 345.58 820.40 340.65 822.32
  Q 332.26 825.58 331.18 826.04
  Q 316.32 832.33 306.22 835.33
  Q 295.70 838.46 287.48 840.63
  Q 265.20 846.50 246.74 848.57
  Q 245.20 848.74 231.57 849.15
  Q 227.39 849.27 223.47 848.55
  C 214.11 846.82 202.72 845.26 195.55 838.20
  Q 195.29 837.95 191.75 835.00
  Q 187.31 831.30 185.41 825.29
  Q 195.13 840.83 211.64 845.11
  Q 231.10 850.16 251.92 846.90
  Q 270.55 843.98 282.80 840.84
  Q 317.99 831.83 350.44 816.97
  Q 351.97 816.27 354.82 817.42
  Q 373.72 825.07 386.84 830.52
  Q 403.86 837.59 417.23 841.37
  Q 438.77 847.46 456.25 849.93
  Q 475.74 852.67 503.63 853.81
  Z"
/>
<path fill="#262c2c" d="
  M 550.30 851.67
  Q 550.71 851.50 550.92 851.62
  A 0.46 0.46 0.0 0 1 550.75 852.48
  Q 538.16 854.06 525.70 853.85
  L 550.30 851.67
  Z"
/>
</svg>
